<svg width="67" height="67" viewBox="-6 -2 67 67" fill="none" xmlns="http://www.w3.org/2000/svg">
<path d="M18.7479 28.0991H12.5817V34.2989H18.7479V28.0991ZM31.0804 28.0991H24.9142V34.2989H31.0804V28.0991ZM43.4128 28.0991H37.2466V34.2989H43.4128V28.0991ZM49.5791 6.39966H46.4959V0.199829H40.3297V6.39966H15.6648V0.199829H9.4986V6.39966H6.41549C2.99324 6.39966 0.280099 9.18959 0.280099 12.5995L0.249268 55.9983C0.249268 59.4082 2.99324 62.1982 6.41549 62.1982H49.5791C52.9705 62.1982 55.7453 59.4082 55.7453 55.9983V12.5995C55.7453 9.18959 52.9705 6.39966 49.5791 6.39966ZM49.5791 55.9983H6.41549V21.8992H49.5791V55.9983Z" fill="white"/>
</svg>
