<svg width="67" height="67" viewBox="0 -10 67 67" fill="none" xmlns="http://www.w3.org/2000/svg">
<path d="M45.3258 18.0084C50.261 18.0084 54.215 14.0029 54.215 9.04084C54.215 4.07877 50.261 0.0732422 45.3258 0.0732422C40.3906 0.0732422 36.4068 4.07877 36.4068 9.04084C36.4068 14.0029 40.3906 18.0084 45.3258 18.0084ZM21.5419 18.0084C26.477 18.0084 30.4311 14.0029 30.4311 9.04084C30.4311 4.07877 26.477 0.0732422 21.5419 0.0732422C16.6067 0.0732422 12.6229 4.07877 12.6229 9.04084C12.6229 14.0029 16.6067 18.0084 21.5419 18.0084ZM21.5419 23.9868C14.6148 23.9868 0.730957 27.4842 0.730957 34.449V41.922H42.3528V34.449C42.3528 27.4842 28.469 23.9868 21.5419 23.9868ZM45.3258 23.9868C44.4636 23.9868 43.4825 24.0466 42.442 24.1363C45.8907 26.6472 48.2988 30.025 48.2988 34.449V41.922H66.1367V34.449C66.1367 27.4842 52.2529 23.9868 45.3258 23.9868Z" fill="white"/>
</svg>
