<svg width="67" height="67" viewBox="-6 -6 67 67" fill="none" xmlns="http://www.w3.org/2000/svg">
<path d="M21.913 6.46389C26.1675 6.46389 30.0213 8.19978 32.8268 10.9896L24.996 18.8631H43.494V0.264282L37.1738 6.61888C33.2584 2.68213 27.8632 0.264282 21.913 0.264282C11.03 0.264282 2.08934 8.35477 0.578671 18.8631H6.80632C8.2245 11.7956 14.4521 6.46389 21.913 6.46389ZM39.3011 34.7961C41.3359 32.0063 42.754 28.6895 43.2473 25.0627H37.0197C35.6015 32.1303 29.3738 37.4619 21.913 37.4619C17.6585 37.4619 13.8047 35.7261 10.9992 32.9362L18.83 25.0627H0.332031V43.6616L6.65217 37.3069C10.5676 41.2437 15.9628 43.6616 21.913 43.6616C26.6916 43.6616 31.1003 42.0806 34.6766 39.4458L49.66 54.4799L54.2536 49.8612L39.3011 34.7961Z" fill="white"/>
</svg>
