<svg width="67" height="67" viewBox="-2 -2 67 67" fill="none" xmlns="http://www.w3.org/2000/svg">
<path d="M45.8508 17.6247L25.5331 38.0532L14.4648 26.9554L10.1176 31.3263L25.5331 46.8259L50.198 22.0266L45.8508 17.6247ZM31.6993 0.327148C14.6806 0.327148 0.868286 14.2148 0.868286 31.3263C0.868286 48.4379 14.6806 62.3255 31.6993 62.3255C48.7181 62.3255 62.5304 48.4379 62.5304 31.3263C62.5304 14.2148 48.7181 0.327148 31.6993 0.327148ZM31.6993 56.1257C18.072 56.1257 7.0345 45.028 7.0345 31.3263C7.0345 17.6247 18.072 6.52698 31.6993 6.52698C45.3267 6.52698 56.3642 17.6247 56.3642 31.3263C56.3642 45.028 45.3267 56.1257 31.6993 56.1257Z" fill="white"/>
</svg>
